# xmcd
#
# Track frame offsets:
# 150
# 11124
# 41294
# 66939
# 82609
# 93110
# 106765
# 120132
# 132968
# 143224
# 154476
# 165731
#
# Disc length: 2475 seconds
#
#
# Revision: 4
# Processed by: cddbd v1.5.2PL0 Copyright (c) Steve Scherf et al.
# Submitted via: FreeRIP 2.90 
#
DISCID=8a09a90c
DTITLE=Eric Clapton - Eric Clapton
DYEAR=1900
DGENRE=Rock
TTITLE0=Eric Clapton - Boom Boom
TTITLE1=Eric Clapton - Smokestack Lightning
TTITLE2=Eric Clapton - Take It Easy Baby
TTITLE3=Eric Clapton - Louise (Louise Blues) with Jack and Ginger
TTITLE4=Eric Clapton - Putty In Your Hands
TTITLE5=Eric Clapton - Jeff's Blues with Jeff Beck
TTITLE6=Eric Clapton - Still I'm Sad with the Yardbirds
TTITLE7=Eric Clapton - Freight Loader with Jimmy Page
TTITLE8=Eric Clapton - Eric's Blues
TTITLE9=Eric Clapton - For Your Love with the Yardbirds
TTITLE10=Eric Clapton - Sweet Music
TTITLE11=Eric Clapton - Wang-Dang Doodle with Jimmy Page
EXTD=
EXTT0=
EXTT1=
EXTT2=
EXTT3=
EXTT4=
EXTT5=
EXTT6=
EXTT7=
EXTT8=
EXTT9=
EXTT10=
EXTT11=
PLAYORDER=
